# xmcd
#
# Track frame offsets:
#	180
#	13806
#	27787
#	40536
#	51957
#	69294
#	80163
#	91384
#	104096
#	115949
#
# Disc length: 1695 seconds
#
# Revision: 0
# Processed by: cddbd v1.5PL3 Copyright (c) Steve Scherf et al.
# Submitted via: dBpowerAMP V4.0
#
DISCID=7e069d0a
DTITLE=Jim Ed Brown and Helen Cornelius - Greatest Hits
DYEAR=1900
DGENRE=Country
TTITLE0=You Don't Bring Me Flowers
TTITLE1=I Don't Want To Have To Marry You
TTITLE2=Morning Comes Too Early
TTITLE3=Fools
TTITLE4=One Man, One Woman
TTITLE5=Don't Bother To Knock
TTITLE6=Saying Hello, Saying I Love You, Saying Goodbye
TTITLE7=Lying In Love With You
TTITLE8=If The World Ran Out Of Love Tonight
TTITLE9=Born Believer
EXTD=
EXTT0=
EXTT1=
EXTT2=
EXTT3=
EXTT4=
EXTT5=
EXTT6=
EXTT7=
EXTT8=
EXTT9=
PLAYORDER=
